# xmcd
#
# Track frame offsets: 
#        182
#        16462
#        36507
#        55955
#        76240
#        101232
#        120722
#        140897
#        160590
#        180507
#        199795
#        222827
#        246470
#        265482
#        285595
#
# Disc length: 4042 seconds
#
# Revision: 13
# Processed by: cddbd v1.5.2PL0 Copyright (c) Steve Scherf et al.
# Submitted via: ExactAudioCopy v1.0b4
#
DISCID=e30fc80f
DTITLE=Toni Braxton - Secrets
DYEAR=1996
DGENRE=R&B
TTITLE0=Come On Over Here
TTITLE1=You're Makin' Me High
TTITLE2=There's No Me Without You
TTITLE3=Un-Break My Heart
TTITLE4=Talking In His Sleep
TTITLE5=How Could An Angel Break My Heart
TTITLE6=Find Me A Man
TTITLE7=Let It Flow
TTITLE8=Why Should I Care
TTITLE9=I Don't Want To
TTITLE10=I Love Me Some Him
TTITLE11=In The Late Of Night
TTITLE12=You're Makin' Me High (T'empo Mix)
TTITLE13=Un-Break My Heart (Classic Radio Mix)
TTITLE14=I Don't Want To (Frankie Knuckles Radio Edit)
EXTD=
EXTT0=
EXTT1=
EXTT2=
EXTT3=
EXTT4=
EXTT5=
EXTT6=
EXTT7=
EXTT8=
EXTT9=
EXTT10=
EXTT11=
EXTT12=
EXTT13=
EXTT14=
PLAYORDER=
